<mxfile host="app.diagrams.net" modified="2024-06-14T22:14:36.520Z" agent="Mozilla/5.0 (Windows NT 10.0; Win64; x64; rv:127.0) Gecko/20100101 Firefox/127.0" version="24.5.2" etag="TBYroHIDUNGOmpC3Z7z5" type="github">
  <diagram name="Strona-1" id="Cfam3KqO3rD-N5YL4yNB">
    <mxGraphModel>
      <root>
        <mxCell id="0" />
        <mxCell id="1" parent="0" />
      </root>
    </mxGraphModel>
  </diagram>
</mxfile>
